<svg xmlns="http://www.w3.org/2000/svg" viewBox="0 0 64 64" fill="currentColor" aria-hidden="true">
  <path d="M32 8c2.2 6.8 9.5 17.8 9.5 25.2a9.5 9.5 0 1 1-19 0C22.5 25.8 29.8 14.8 32 8Z"/>
  <path d="M16.5 22c1.5 4.6 6.4 12 6.4 16.6a6.4 6.4 0 1 1-12.8 0c0-4.6 4.9-12 6.4-16.6Z"/>
  <path d="M47.5 22c1.5 4.6 6.4 12 6.4 16.6a6.4 6.4 0 1 1-12.8 0c0-4.6 4.9-12 6.4-16.6Z"/>
  <path d="M8.8 38.5c.9 2.7 3.7 7 3.7 9.6a3.7 3.7 0 1 1-7.4 0c0-2.6 2.8-6.9 3.7-9.6Z"/>
  <path d="M55.2 38.5c.9 2.7 3.7 7 3.7 9.6a3.7 3.7 0 1 1-7.4 0c0-2.6 2.8-6.9 3.7-9.6Z"/>
</svg>
